<mxfile host="app.diagrams.net" modified="2022-05-16T07:39:07.017Z" agent="5.0 (Macintosh; Intel Mac OS X 10_15_7) AppleWebKit/537.36 (KHTML, like Gecko) Chrome/101.0.4951.64 Safari/537.36" etag="N7taVVKW-bLWccmDgwYO" version="18.0.3" type="github">
  <diagram name="Page-1" id="74e2e168-ea6b-b213-b513-2b3c1d86103e">
    <mxGraphModel dx="1298" dy="826" grid="1" gridSize="10" guides="1" tooltips="1" connect="1" arrows="1" fold="1" page="1" pageScale="1" pageWidth="4681" pageHeight="3300" background="none" math="0" shadow="0">
      <root>
        <mxCell id="0" />
        <mxCell id="1" parent="0" />
        <mxCell id="77e6c97f196da883-1" value="猫超换仓流程" style="swimlane;html=1;childLayout=stackLayout;startSize=20;rounded=0;shadow=0;labelBackgroundColor=none;strokeWidth=1;fontFamily=Verdana;fontSize=8;align=center;" parent="1" vertex="1">
          <mxGeometry x="70" y="40" width="960" height="2050" as="geometry" />
        </mxCell>
        <mxCell id="77e6c97f196da883-2" value="行业bundle" style="swimlane;html=1;startSize=20;" parent="77e6c97f196da883-1" vertex="1">
          <mxGeometry y="20" width="160" height="2030" as="geometry" />
        </mxCell>
        <mxCell id="fQ6X1i2hyCeFsSE2rYZc-5" style="edgeStyle=orthogonalEdgeStyle;rounded=0;orthogonalLoop=1;jettySize=auto;html=1;exitX=0.5;exitY=1;exitDx=0;exitDy=0;entryX=0.5;entryY=0;entryDx=0;entryDy=0;" edge="1" parent="77e6c97f196da883-2" source="77e6c97f196da883-12" target="fQ6X1i2hyCeFsSE2rYZc-1">
          <mxGeometry relative="1" as="geometry" />
        </mxCell>
        <mxCell id="77e6c97f196da883-12" value="小二创建换仓申请" style="rounded=1;whiteSpace=wrap;html=1;shadow=0;labelBackgroundColor=none;strokeWidth=1;fontFamily=Verdana;fontSize=8;align=center;" parent="77e6c97f196da883-2" vertex="1">
          <mxGeometry x="40" y="50" width="70" height="40" as="geometry" />
        </mxCell>
        <mxCell id="fQ6X1i2hyCeFsSE2rYZc-6" style="edgeStyle=orthogonalEdgeStyle;rounded=0;orthogonalLoop=1;jettySize=auto;html=1;exitX=0.5;exitY=1;exitDx=0;exitDy=0;entryX=0.5;entryY=0;entryDx=0;entryDy=0;" edge="1" parent="77e6c97f196da883-2" source="fQ6X1i2hyCeFsSE2rYZc-1" target="fQ6X1i2hyCeFsSE2rYZc-2">
          <mxGeometry relative="1" as="geometry" />
        </mxCell>
        <mxCell id="fQ6X1i2hyCeFsSE2rYZc-1" value="小二导入换仓明细" style="rounded=1;whiteSpace=wrap;html=1;shadow=0;labelBackgroundColor=none;strokeWidth=1;fontFamily=Verdana;fontSize=8;align=center;" vertex="1" parent="77e6c97f196da883-2">
          <mxGeometry x="40" y="110" width="70" height="40" as="geometry" />
        </mxCell>
        <mxCell id="fQ6X1i2hyCeFsSE2rYZc-7" style="edgeStyle=orthogonalEdgeStyle;rounded=0;orthogonalLoop=1;jettySize=auto;html=1;exitX=0.5;exitY=1;exitDx=0;exitDy=0;entryX=0.5;entryY=0;entryDx=0;entryDy=0;" edge="1" parent="77e6c97f196da883-2" source="fQ6X1i2hyCeFsSE2rYZc-2" target="fQ6X1i2hyCeFsSE2rYZc-3">
          <mxGeometry relative="1" as="geometry" />
        </mxCell>
        <mxCell id="fQ6X1i2hyCeFsSE2rYZc-2" value="小二提交换仓审批" style="rounded=1;whiteSpace=wrap;html=1;shadow=0;labelBackgroundColor=none;strokeWidth=1;fontFamily=Verdana;fontSize=8;align=center;" vertex="1" parent="77e6c97f196da883-2">
          <mxGeometry x="40" y="170" width="70" height="40" as="geometry" />
        </mxCell>
        <mxCell id="fQ6X1i2hyCeFsSE2rYZc-8" style="edgeStyle=orthogonalEdgeStyle;rounded=0;orthogonalLoop=1;jettySize=auto;html=1;exitX=0.5;exitY=1;exitDx=0;exitDy=0;entryX=0.5;entryY=0;entryDx=0;entryDy=0;" edge="1" parent="77e6c97f196da883-2" source="fQ6X1i2hyCeFsSE2rYZc-3" target="fQ6X1i2hyCeFsSE2rYZc-4">
          <mxGeometry relative="1" as="geometry" />
        </mxCell>
        <mxCell id="fQ6X1i2hyCeFsSE2rYZc-3" value="物流小二审批" style="rounded=1;whiteSpace=wrap;html=1;shadow=0;labelBackgroundColor=none;strokeWidth=1;fontFamily=Verdana;fontSize=8;align=center;" vertex="1" parent="77e6c97f196da883-2">
          <mxGeometry x="40" y="230" width="70" height="40" as="geometry" />
        </mxCell>
        <mxCell id="fQ6X1i2hyCeFsSE2rYZc-20" style="edgeStyle=orthogonalEdgeStyle;rounded=0;orthogonalLoop=1;jettySize=auto;html=1;exitX=0.5;exitY=1;exitDx=0;exitDy=0;entryX=0.5;entryY=0;entryDx=0;entryDy=0;dashed=1;" edge="1" parent="77e6c97f196da883-2" source="fQ6X1i2hyCeFsSE2rYZc-4" target="fQ6X1i2hyCeFsSE2rYZc-19">
          <mxGeometry relative="1" as="geometry" />
        </mxCell>
        <mxCell id="fQ6X1i2hyCeFsSE2rYZc-4" value="供应链小二审批" style="rounded=1;whiteSpace=wrap;html=1;shadow=0;labelBackgroundColor=none;strokeWidth=1;fontFamily=Verdana;fontSize=8;align=center;" vertex="1" parent="77e6c97f196da883-2">
          <mxGeometry x="40" y="290" width="70" height="40" as="geometry" />
        </mxCell>
        <mxCell id="fQ6X1i2hyCeFsSE2rYZc-19" value="执行换仓" style="rounded=1;whiteSpace=wrap;html=1;shadow=0;labelBackgroundColor=none;strokeWidth=1;fontFamily=Verdana;fontSize=8;align=center;" vertex="1" parent="77e6c97f196da883-2">
          <mxGeometry x="40" y="380" width="70" height="40" as="geometry" />
        </mxCell>
        <mxCell id="fQ6X1i2hyCeFsSE2rYZc-35" value="履约单前置校验" style="rounded=1;whiteSpace=wrap;html=1;shadow=0;labelBackgroundColor=none;strokeWidth=1;fontFamily=Verdana;fontSize=8;align=center;" vertex="1" parent="77e6c97f196da883-2">
          <mxGeometry x="40" y="460" width="70" height="40" as="geometry" />
        </mxCell>
        <mxCell id="fQ6X1i2hyCeFsSE2rYZc-42" value="校验拦截结果" style="rounded=1;whiteSpace=wrap;html=1;shadow=0;labelBackgroundColor=none;strokeWidth=1;fontFamily=Verdana;fontSize=8;align=center;" vertex="1" parent="77e6c97f196da883-2">
          <mxGeometry x="40" y="788" width="70" height="40" as="geometry" />
        </mxCell>
        <mxCell id="fQ6X1i2hyCeFsSE2rYZc-47" value="校验履约单信息" style="rounded=1;whiteSpace=wrap;html=1;shadow=0;labelBackgroundColor=none;strokeWidth=1;fontFamily=Verdana;fontSize=8;align=center;" vertex="1" parent="77e6c97f196da883-2">
          <mxGeometry x="40" y="868" width="70" height="40" as="geometry" />
        </mxCell>
        <mxCell id="fQ6X1i2hyCeFsSE2rYZc-71" style="edgeStyle=orthogonalEdgeStyle;rounded=0;orthogonalLoop=1;jettySize=auto;html=1;exitX=0.5;exitY=1;exitDx=0;exitDy=0;entryX=0.5;entryY=0;entryDx=0;entryDy=0;" edge="1" parent="77e6c97f196da883-2" source="fQ6X1i2hyCeFsSE2rYZc-67" target="fQ6X1i2hyCeFsSE2rYZc-70">
          <mxGeometry relative="1" as="geometry" />
        </mxCell>
        <mxCell id="fQ6X1i2hyCeFsSE2rYZc-67" value="校验库存取消结果" style="rounded=1;whiteSpace=wrap;html=1;shadow=0;labelBackgroundColor=none;strokeWidth=1;fontFamily=Verdana;fontSize=8;align=center;" vertex="1" parent="77e6c97f196da883-2">
          <mxGeometry x="40" y="948" width="70" height="40" as="geometry" />
        </mxCell>
        <mxCell id="fQ6X1i2hyCeFsSE2rYZc-70" value="是否成功" style="rhombus;whiteSpace=wrap;html=1;" vertex="1" parent="77e6c97f196da883-2">
          <mxGeometry x="45" y="1018" width="60" height="50" as="geometry" />
        </mxCell>
        <mxCell id="fQ6X1i2hyCeFsSE2rYZc-79" value="校验修改结果" style="rounded=1;whiteSpace=wrap;html=1;shadow=0;labelBackgroundColor=none;strokeWidth=1;fontFamily=Verdana;fontSize=8;align=center;" vertex="1" parent="77e6c97f196da883-2">
          <mxGeometry x="45" y="1188" width="70" height="40" as="geometry" />
        </mxCell>
        <mxCell id="fQ6X1i2hyCeFsSE2rYZc-83" value="校验履约单信息" style="rounded=1;whiteSpace=wrap;html=1;shadow=0;labelBackgroundColor=none;strokeWidth=1;fontFamily=Verdana;fontSize=8;align=center;" vertex="1" parent="77e6c97f196da883-2">
          <mxGeometry x="45" y="1268" width="70" height="40" as="geometry" />
        </mxCell>
        <mxCell id="fQ6X1i2hyCeFsSE2rYZc-90" style="edgeStyle=orthogonalEdgeStyle;rounded=0;orthogonalLoop=1;jettySize=auto;html=1;exitX=0.5;exitY=1;exitDx=0;exitDy=0;entryX=0.5;entryY=0;entryDx=0;entryDy=0;" edge="1" parent="77e6c97f196da883-2" source="fQ6X1i2hyCeFsSE2rYZc-87" target="fQ6X1i2hyCeFsSE2rYZc-89">
          <mxGeometry relative="1" as="geometry" />
        </mxCell>
        <mxCell id="fQ6X1i2hyCeFsSE2rYZc-87" value="校验仓路由结果" style="rounded=1;whiteSpace=wrap;html=1;shadow=0;labelBackgroundColor=none;strokeWidth=1;fontFamily=Verdana;fontSize=8;align=center;" vertex="1" parent="77e6c97f196da883-2">
          <mxGeometry x="45" y="1348" width="70" height="40" as="geometry" />
        </mxCell>
        <mxCell id="fQ6X1i2hyCeFsSE2rYZc-89" value="是否成功" style="rhombus;whiteSpace=wrap;html=1;" vertex="1" parent="77e6c97f196da883-2">
          <mxGeometry x="50" y="1418" width="60" height="50" as="geometry" />
        </mxCell>
        <mxCell id="fQ6X1i2hyCeFsSE2rYZc-97" value="检验修改结果" style="rounded=1;whiteSpace=wrap;html=1;shadow=0;labelBackgroundColor=none;strokeWidth=1;fontFamily=Verdana;fontSize=8;align=center;" vertex="1" parent="77e6c97f196da883-2">
          <mxGeometry x="45" y="1578" width="70" height="40" as="geometry" />
        </mxCell>
        <mxCell id="fQ6X1i2hyCeFsSE2rYZc-101" value="检验履约单信息" style="rounded=1;whiteSpace=wrap;html=1;shadow=0;labelBackgroundColor=none;strokeWidth=1;fontFamily=Verdana;fontSize=8;align=center;" vertex="1" parent="77e6c97f196da883-2">
          <mxGeometry x="45" y="1658" width="70" height="40" as="geometry" />
        </mxCell>
        <mxCell id="fQ6X1i2hyCeFsSE2rYZc-106" value="校验库存" style="rounded=1;whiteSpace=wrap;html=1;shadow=0;labelBackgroundColor=none;strokeWidth=1;fontFamily=Verdana;fontSize=8;align=center;" vertex="1" parent="77e6c97f196da883-2">
          <mxGeometry x="40" y="560" width="70" height="40" as="geometry" />
        </mxCell>
        <mxCell id="fQ6X1i2hyCeFsSE2rYZc-111" value="校验线路覆盖" style="rounded=1;whiteSpace=wrap;html=1;shadow=0;labelBackgroundColor=none;strokeWidth=1;fontFamily=Verdana;fontSize=8;align=center;" vertex="1" parent="77e6c97f196da883-2">
          <mxGeometry x="40" y="660" width="70" height="40" as="geometry" />
        </mxCell>
        <mxCell id="fQ6X1i2hyCeFsSE2rYZc-116" value="小二查看换仓结果" style="rounded=1;whiteSpace=wrap;html=1;shadow=0;labelBackgroundColor=none;strokeWidth=1;fontFamily=Verdana;fontSize=8;align=center;" vertex="1" parent="77e6c97f196da883-2">
          <mxGeometry x="45" y="1780" width="70" height="40" as="geometry" />
        </mxCell>
        <mxCell id="77e6c97f196da883-40" style="edgeStyle=orthogonalEdgeStyle;rounded=1;html=1;labelBackgroundColor=none;startArrow=none;startFill=0;startSize=5;endArrow=classicThin;endFill=1;endSize=5;jettySize=auto;orthogonalLoop=1;strokeWidth=1;fontFamily=Verdana;fontSize=8" parent="77e6c97f196da883-1" target="77e6c97f196da883-24" edge="1">
          <mxGeometry relative="1" as="geometry">
            <mxPoint x="770" y="690" as="sourcePoint" />
          </mxGeometry>
        </mxCell>
        <mxCell id="107ba76e4e335f99-3" style="edgeStyle=orthogonalEdgeStyle;rounded=1;html=1;labelBackgroundColor=none;startArrow=none;startFill=0;startSize=5;endArrow=classicThin;endFill=1;endSize=5;jettySize=auto;orthogonalLoop=1;strokeColor=#000000;strokeWidth=1;fontFamily=Verdana;fontSize=8;fontColor=#000000;" parent="77e6c97f196da883-1" target="77e6c97f196da883-19" edge="1">
          <mxGeometry relative="1" as="geometry">
            <mxPoint x="670" y="610" as="sourcePoint" />
          </mxGeometry>
        </mxCell>
        <mxCell id="107ba76e4e335f99-6" style="edgeStyle=orthogonalEdgeStyle;rounded=1;html=1;labelBackgroundColor=none;startArrow=none;startFill=0;startSize=5;endArrow=classicThin;endFill=1;endSize=5;jettySize=auto;orthogonalLoop=1;strokeWidth=1;fontFamily=Verdana;fontSize=8" parent="77e6c97f196da883-1" source="77e6c97f196da883-14" edge="1">
          <mxGeometry relative="1" as="geometry">
            <mxPoint x="510" y="610" as="targetPoint" />
          </mxGeometry>
        </mxCell>
        <mxCell id="77e6c97f196da883-3" value="UOP-ORDER" style="swimlane;html=1;startSize=20;" parent="77e6c97f196da883-1" vertex="1">
          <mxGeometry x="160" y="20" width="160" height="2030" as="geometry" />
        </mxCell>
        <mxCell id="fQ6X1i2hyCeFsSE2rYZc-33" value="查询/搜索履约单" style="rounded=1;whiteSpace=wrap;html=1;shadow=0;labelBackgroundColor=none;strokeWidth=1;fontFamily=Verdana;fontSize=8;align=center;" vertex="1" parent="77e6c97f196da883-3">
          <mxGeometry x="40" y="380" width="70" height="40" as="geometry" />
        </mxCell>
        <mxCell id="fQ6X1i2hyCeFsSE2rYZc-45" value="查询最新履约单信息" style="rounded=1;whiteSpace=wrap;html=1;shadow=0;labelBackgroundColor=none;strokeWidth=1;fontFamily=Verdana;fontSize=8;align=center;" vertex="1" parent="77e6c97f196da883-3">
          <mxGeometry x="40" y="788" width="70" height="40" as="geometry" />
        </mxCell>
        <mxCell id="fQ6X1i2hyCeFsSE2rYZc-76" value="修改履约单信息（状态、仓库）" style="rounded=1;whiteSpace=wrap;html=1;shadow=0;labelBackgroundColor=none;strokeWidth=1;fontFamily=Verdana;fontSize=8;align=center;" vertex="1" parent="77e6c97f196da883-3">
          <mxGeometry x="40" y="1108" width="70" height="40" as="geometry" />
        </mxCell>
        <mxCell id="fQ6X1i2hyCeFsSE2rYZc-81" value="&lt;span style=&quot;&quot;&gt;查询最新履约单信息&lt;/span&gt;" style="rounded=1;whiteSpace=wrap;html=1;shadow=0;labelBackgroundColor=none;strokeWidth=1;fontFamily=Verdana;fontSize=8;align=center;" vertex="1" parent="77e6c97f196da883-3">
          <mxGeometry x="40" y="1188" width="70" height="40" as="geometry" />
        </mxCell>
        <mxCell id="fQ6X1i2hyCeFsSE2rYZc-95" value="回滚履约单信息" style="rounded=1;whiteSpace=wrap;html=1;shadow=0;labelBackgroundColor=none;strokeWidth=1;fontFamily=Verdana;fontSize=8;align=center;" vertex="1" parent="77e6c97f196da883-3">
          <mxGeometry x="40" y="1498" width="70" height="40" as="geometry" />
        </mxCell>
        <mxCell id="fQ6X1i2hyCeFsSE2rYZc-99" value="&lt;span style=&quot;&quot;&gt;查询最新履约单信息&lt;/span&gt;" style="rounded=1;whiteSpace=wrap;html=1;shadow=0;labelBackgroundColor=none;strokeWidth=1;fontFamily=Verdana;fontSize=8;align=center;" vertex="1" parent="77e6c97f196da883-3">
          <mxGeometry x="40" y="1578" width="70" height="40" as="geometry" />
        </mxCell>
        <mxCell id="77e6c97f196da883-4" value="UOP-GATEWAY" style="swimlane;html=1;startSize=20;" parent="77e6c97f196da883-1" vertex="1">
          <mxGeometry x="320" y="20" width="160" height="2030" as="geometry" />
        </mxCell>
        <mxCell id="fQ6X1i2hyCeFsSE2rYZc-39" value="拦截履约单" style="rounded=1;whiteSpace=wrap;html=1;shadow=0;labelBackgroundColor=none;strokeWidth=1;fontFamily=Verdana;fontSize=8;align=center;" vertex="1" parent="77e6c97f196da883-4">
          <mxGeometry x="40" y="660" width="70" height="40" as="geometry" />
        </mxCell>
        <mxCell id="fQ6X1i2hyCeFsSE2rYZc-85" value="仓路由" style="rounded=1;whiteSpace=wrap;html=1;shadow=0;labelBackgroundColor=none;strokeWidth=1;fontFamily=Verdana;fontSize=8;align=center;" vertex="1" parent="77e6c97f196da883-4">
          <mxGeometry x="40" y="1268" width="70" height="40" as="geometry" />
        </mxCell>
        <mxCell id="77e6c97f196da883-5" value="UOP-CONTROl" style="swimlane;html=1;startSize=20;" parent="77e6c97f196da883-1" vertex="1">
          <mxGeometry x="480" y="20" width="160" height="2030" as="geometry" />
        </mxCell>
        <mxCell id="fQ6X1i2hyCeFsSE2rYZc-72" value="原单调度/下发" style="rounded=1;whiteSpace=wrap;html=1;shadow=0;labelBackgroundColor=none;strokeWidth=1;fontFamily=Verdana;fontSize=8;align=center;" vertex="1" parent="77e6c97f196da883-5">
          <mxGeometry x="45" y="1023" width="70" height="40" as="geometry" />
        </mxCell>
        <mxCell id="fQ6X1i2hyCeFsSE2rYZc-91" value="新单调度/下发" style="rounded=1;whiteSpace=wrap;html=1;shadow=0;labelBackgroundColor=none;strokeWidth=1;fontFamily=Verdana;fontSize=8;align=center;" vertex="1" parent="77e6c97f196da883-5">
          <mxGeometry x="45" y="1423" width="70" height="40" as="geometry" />
        </mxCell>
        <mxCell id="fQ6X1i2hyCeFsSE2rYZc-94" value="原单调度/下发" style="rounded=1;whiteSpace=wrap;html=1;shadow=0;labelBackgroundColor=none;strokeWidth=1;fontFamily=Verdana;fontSize=8;align=center;" vertex="1" parent="77e6c97f196da883-5">
          <mxGeometry x="45" y="1658" width="70" height="40" as="geometry" />
        </mxCell>
        <mxCell id="77e6c97f196da883-6" value="AIC" style="swimlane;html=1;startSize=20;" parent="77e6c97f196da883-1" vertex="1">
          <mxGeometry x="640" y="20" width="160" height="2030" as="geometry" />
        </mxCell>
        <mxCell id="77e6c97f196da883-37" style="edgeStyle=orthogonalEdgeStyle;rounded=1;html=1;labelBackgroundColor=none;startArrow=none;startFill=0;startSize=5;endArrow=classicThin;endFill=1;endSize=5;jettySize=auto;orthogonalLoop=1;strokeWidth=1;fontFamily=Verdana;fontSize=8" parent="77e6c97f196da883-6" target="77e6c97f196da883-21" edge="1">
          <mxGeometry relative="1" as="geometry">
            <mxPoint x="80" y="460" as="sourcePoint" />
          </mxGeometry>
        </mxCell>
        <mxCell id="fQ6X1i2hyCeFsSE2rYZc-65" value="取消库存" style="rounded=1;whiteSpace=wrap;html=1;shadow=0;labelBackgroundColor=none;strokeWidth=1;fontFamily=Verdana;fontSize=8;align=center;" vertex="1" parent="77e6c97f196da883-6">
          <mxGeometry x="45" y="868" width="70" height="40" as="geometry" />
        </mxCell>
        <mxCell id="fQ6X1i2hyCeFsSE2rYZc-104" value="查询新仓可用库存" style="rounded=1;whiteSpace=wrap;html=1;shadow=0;labelBackgroundColor=none;strokeWidth=1;fontFamily=Verdana;fontSize=8;align=center;" vertex="1" parent="77e6c97f196da883-6">
          <mxGeometry x="40" y="460" width="70" height="40" as="geometry" />
        </mxCell>
        <mxCell id="77e6c97f196da883-7" value="SDP" style="swimlane;html=1;startSize=20;" parent="77e6c97f196da883-1" vertex="1">
          <mxGeometry x="800" y="20" width="160" height="2030" as="geometry">
            <mxRectangle x="800" y="20" width="50" height="2030" as="alternateBounds" />
          </mxGeometry>
        </mxCell>
        <mxCell id="fQ6X1i2hyCeFsSE2rYZc-109" value="查询仓线路覆盖" style="rounded=1;whiteSpace=wrap;html=1;shadow=0;labelBackgroundColor=none;strokeWidth=1;fontFamily=Verdana;fontSize=8;align=center;" vertex="1" parent="77e6c97f196da883-7">
          <mxGeometry x="45" y="560" width="70" height="40" as="geometry" />
        </mxCell>
        <mxCell id="fQ6X1i2hyCeFsSE2rYZc-34" style="edgeStyle=orthogonalEdgeStyle;rounded=0;orthogonalLoop=1;jettySize=auto;html=1;exitX=1;exitY=0.5;exitDx=0;exitDy=0;entryX=0;entryY=0.5;entryDx=0;entryDy=0;" edge="1" parent="77e6c97f196da883-1" source="fQ6X1i2hyCeFsSE2rYZc-19" target="fQ6X1i2hyCeFsSE2rYZc-33">
          <mxGeometry relative="1" as="geometry" />
        </mxCell>
        <mxCell id="fQ6X1i2hyCeFsSE2rYZc-36" style="edgeStyle=orthogonalEdgeStyle;rounded=0;orthogonalLoop=1;jettySize=auto;html=1;exitX=0.5;exitY=1;exitDx=0;exitDy=0;entryX=0.5;entryY=0;entryDx=0;entryDy=0;" edge="1" parent="77e6c97f196da883-1" source="fQ6X1i2hyCeFsSE2rYZc-33" target="fQ6X1i2hyCeFsSE2rYZc-35">
          <mxGeometry relative="1" as="geometry" />
        </mxCell>
        <mxCell id="fQ6X1i2hyCeFsSE2rYZc-44" style="edgeStyle=orthogonalEdgeStyle;rounded=0;orthogonalLoop=1;jettySize=auto;html=1;exitX=0.5;exitY=1;exitDx=0;exitDy=0;entryX=0.5;entryY=0;entryDx=0;entryDy=0;" edge="1" parent="77e6c97f196da883-1" source="fQ6X1i2hyCeFsSE2rYZc-39" target="fQ6X1i2hyCeFsSE2rYZc-42">
          <mxGeometry relative="1" as="geometry" />
        </mxCell>
        <mxCell id="fQ6X1i2hyCeFsSE2rYZc-46" style="edgeStyle=orthogonalEdgeStyle;rounded=0;orthogonalLoop=1;jettySize=auto;html=1;exitX=1;exitY=0.5;exitDx=0;exitDy=0;entryX=0;entryY=0.5;entryDx=0;entryDy=0;" edge="1" parent="77e6c97f196da883-1" source="fQ6X1i2hyCeFsSE2rYZc-42" target="fQ6X1i2hyCeFsSE2rYZc-45">
          <mxGeometry relative="1" as="geometry" />
        </mxCell>
        <mxCell id="fQ6X1i2hyCeFsSE2rYZc-49" style="edgeStyle=orthogonalEdgeStyle;rounded=0;orthogonalLoop=1;jettySize=auto;html=1;exitX=0.5;exitY=1;exitDx=0;exitDy=0;entryX=0.5;entryY=0;entryDx=0;entryDy=0;" edge="1" parent="77e6c97f196da883-1" source="fQ6X1i2hyCeFsSE2rYZc-45" target="fQ6X1i2hyCeFsSE2rYZc-47">
          <mxGeometry relative="1" as="geometry" />
        </mxCell>
        <mxCell id="fQ6X1i2hyCeFsSE2rYZc-66" style="edgeStyle=orthogonalEdgeStyle;rounded=0;orthogonalLoop=1;jettySize=auto;html=1;exitX=1;exitY=0.5;exitDx=0;exitDy=0;entryX=0;entryY=0.5;entryDx=0;entryDy=0;" edge="1" parent="77e6c97f196da883-1" source="fQ6X1i2hyCeFsSE2rYZc-47" target="fQ6X1i2hyCeFsSE2rYZc-65">
          <mxGeometry relative="1" as="geometry" />
        </mxCell>
        <mxCell id="fQ6X1i2hyCeFsSE2rYZc-69" style="edgeStyle=orthogonalEdgeStyle;rounded=0;orthogonalLoop=1;jettySize=auto;html=1;exitX=0.5;exitY=1;exitDx=0;exitDy=0;" edge="1" parent="77e6c97f196da883-1" source="fQ6X1i2hyCeFsSE2rYZc-65" target="fQ6X1i2hyCeFsSE2rYZc-67">
          <mxGeometry relative="1" as="geometry" />
        </mxCell>
        <mxCell id="fQ6X1i2hyCeFsSE2rYZc-73" style="edgeStyle=orthogonalEdgeStyle;rounded=0;orthogonalLoop=1;jettySize=auto;html=1;exitX=1;exitY=0.5;exitDx=0;exitDy=0;entryX=0;entryY=0.5;entryDx=0;entryDy=0;" edge="1" parent="77e6c97f196da883-1" source="fQ6X1i2hyCeFsSE2rYZc-70" target="fQ6X1i2hyCeFsSE2rYZc-72">
          <mxGeometry relative="1" as="geometry" />
        </mxCell>
        <mxCell id="fQ6X1i2hyCeFsSE2rYZc-75" value="否" style="edgeLabel;html=1;align=center;verticalAlign=middle;resizable=0;points=[];" vertex="1" connectable="0" parent="fQ6X1i2hyCeFsSE2rYZc-73">
          <mxGeometry x="-0.3839" y="1" relative="1" as="geometry">
            <mxPoint y="1" as="offset" />
          </mxGeometry>
        </mxCell>
        <mxCell id="fQ6X1i2hyCeFsSE2rYZc-77" style="edgeStyle=orthogonalEdgeStyle;rounded=0;orthogonalLoop=1;jettySize=auto;html=1;exitX=0.5;exitY=1;exitDx=0;exitDy=0;entryX=0;entryY=0.5;entryDx=0;entryDy=0;" edge="1" parent="77e6c97f196da883-1" source="fQ6X1i2hyCeFsSE2rYZc-70" target="fQ6X1i2hyCeFsSE2rYZc-76">
          <mxGeometry relative="1" as="geometry" />
        </mxCell>
        <mxCell id="fQ6X1i2hyCeFsSE2rYZc-78" value="是" style="edgeLabel;html=1;align=center;verticalAlign=middle;resizable=0;points=[];" vertex="1" connectable="0" parent="fQ6X1i2hyCeFsSE2rYZc-77">
          <mxGeometry x="-0.5297" y="1" relative="1" as="geometry">
            <mxPoint as="offset" />
          </mxGeometry>
        </mxCell>
        <mxCell id="fQ6X1i2hyCeFsSE2rYZc-80" style="edgeStyle=orthogonalEdgeStyle;rounded=0;orthogonalLoop=1;jettySize=auto;html=1;exitX=0.5;exitY=1;exitDx=0;exitDy=0;entryX=0.5;entryY=0;entryDx=0;entryDy=0;" edge="1" parent="77e6c97f196da883-1" source="fQ6X1i2hyCeFsSE2rYZc-76" target="fQ6X1i2hyCeFsSE2rYZc-79">
          <mxGeometry relative="1" as="geometry" />
        </mxCell>
        <mxCell id="fQ6X1i2hyCeFsSE2rYZc-82" style="edgeStyle=orthogonalEdgeStyle;rounded=0;orthogonalLoop=1;jettySize=auto;html=1;exitX=1;exitY=0.5;exitDx=0;exitDy=0;entryX=0;entryY=0.5;entryDx=0;entryDy=0;" edge="1" parent="77e6c97f196da883-1" source="fQ6X1i2hyCeFsSE2rYZc-79" target="fQ6X1i2hyCeFsSE2rYZc-81">
          <mxGeometry relative="1" as="geometry" />
        </mxCell>
        <mxCell id="fQ6X1i2hyCeFsSE2rYZc-84" style="edgeStyle=orthogonalEdgeStyle;rounded=0;orthogonalLoop=1;jettySize=auto;html=1;exitX=0.5;exitY=1;exitDx=0;exitDy=0;entryX=0.5;entryY=0;entryDx=0;entryDy=0;" edge="1" parent="77e6c97f196da883-1" source="fQ6X1i2hyCeFsSE2rYZc-81" target="fQ6X1i2hyCeFsSE2rYZc-83">
          <mxGeometry relative="1" as="geometry" />
        </mxCell>
        <mxCell id="fQ6X1i2hyCeFsSE2rYZc-86" style="edgeStyle=orthogonalEdgeStyle;rounded=0;orthogonalLoop=1;jettySize=auto;html=1;exitX=1;exitY=0.5;exitDx=0;exitDy=0;entryX=0;entryY=0.5;entryDx=0;entryDy=0;" edge="1" parent="77e6c97f196da883-1" source="fQ6X1i2hyCeFsSE2rYZc-83" target="fQ6X1i2hyCeFsSE2rYZc-85">
          <mxGeometry relative="1" as="geometry" />
        </mxCell>
        <mxCell id="fQ6X1i2hyCeFsSE2rYZc-88" style="edgeStyle=orthogonalEdgeStyle;rounded=0;orthogonalLoop=1;jettySize=auto;html=1;exitX=0.5;exitY=1;exitDx=0;exitDy=0;entryX=0.5;entryY=0;entryDx=0;entryDy=0;" edge="1" parent="77e6c97f196da883-1" source="fQ6X1i2hyCeFsSE2rYZc-85" target="fQ6X1i2hyCeFsSE2rYZc-87">
          <mxGeometry relative="1" as="geometry" />
        </mxCell>
        <mxCell id="fQ6X1i2hyCeFsSE2rYZc-92" style="edgeStyle=orthogonalEdgeStyle;rounded=0;orthogonalLoop=1;jettySize=auto;html=1;exitX=1;exitY=0.5;exitDx=0;exitDy=0;entryX=0;entryY=0.5;entryDx=0;entryDy=0;" edge="1" parent="77e6c97f196da883-1" source="fQ6X1i2hyCeFsSE2rYZc-89" target="fQ6X1i2hyCeFsSE2rYZc-91">
          <mxGeometry relative="1" as="geometry" />
        </mxCell>
        <mxCell id="fQ6X1i2hyCeFsSE2rYZc-93" value="是" style="edgeLabel;html=1;align=center;verticalAlign=middle;resizable=0;points=[];" vertex="1" connectable="0" parent="fQ6X1i2hyCeFsSE2rYZc-92">
          <mxGeometry x="-0.2627" relative="1" as="geometry">
            <mxPoint as="offset" />
          </mxGeometry>
        </mxCell>
        <mxCell id="fQ6X1i2hyCeFsSE2rYZc-96" style="edgeStyle=orthogonalEdgeStyle;rounded=0;orthogonalLoop=1;jettySize=auto;html=1;exitX=0.5;exitY=1;exitDx=0;exitDy=0;entryX=0;entryY=0.5;entryDx=0;entryDy=0;" edge="1" parent="77e6c97f196da883-1" source="fQ6X1i2hyCeFsSE2rYZc-89" target="fQ6X1i2hyCeFsSE2rYZc-95">
          <mxGeometry relative="1" as="geometry" />
        </mxCell>
        <mxCell id="fQ6X1i2hyCeFsSE2rYZc-115" value="否" style="edgeLabel;html=1;align=center;verticalAlign=middle;resizable=0;points=[];" vertex="1" connectable="0" parent="fQ6X1i2hyCeFsSE2rYZc-96">
          <mxGeometry x="-0.7353" y="2" relative="1" as="geometry">
            <mxPoint y="1" as="offset" />
          </mxGeometry>
        </mxCell>
        <mxCell id="fQ6X1i2hyCeFsSE2rYZc-98" style="edgeStyle=orthogonalEdgeStyle;rounded=0;orthogonalLoop=1;jettySize=auto;html=1;exitX=0.5;exitY=1;exitDx=0;exitDy=0;entryX=0.5;entryY=0;entryDx=0;entryDy=0;" edge="1" parent="77e6c97f196da883-1" source="fQ6X1i2hyCeFsSE2rYZc-95" target="fQ6X1i2hyCeFsSE2rYZc-97">
          <mxGeometry relative="1" as="geometry" />
        </mxCell>
        <mxCell id="fQ6X1i2hyCeFsSE2rYZc-100" style="edgeStyle=orthogonalEdgeStyle;rounded=0;orthogonalLoop=1;jettySize=auto;html=1;exitX=1;exitY=0.5;exitDx=0;exitDy=0;entryX=0;entryY=0.5;entryDx=0;entryDy=0;" edge="1" parent="77e6c97f196da883-1" source="fQ6X1i2hyCeFsSE2rYZc-97" target="fQ6X1i2hyCeFsSE2rYZc-99">
          <mxGeometry relative="1" as="geometry" />
        </mxCell>
        <mxCell id="fQ6X1i2hyCeFsSE2rYZc-102" style="edgeStyle=orthogonalEdgeStyle;rounded=0;orthogonalLoop=1;jettySize=auto;html=1;exitX=0.5;exitY=1;exitDx=0;exitDy=0;entryX=0.5;entryY=0;entryDx=0;entryDy=0;" edge="1" parent="77e6c97f196da883-1" source="fQ6X1i2hyCeFsSE2rYZc-99" target="fQ6X1i2hyCeFsSE2rYZc-101">
          <mxGeometry relative="1" as="geometry" />
        </mxCell>
        <mxCell id="fQ6X1i2hyCeFsSE2rYZc-103" style="edgeStyle=orthogonalEdgeStyle;rounded=0;orthogonalLoop=1;jettySize=auto;html=1;exitX=1;exitY=0.5;exitDx=0;exitDy=0;entryX=0;entryY=0.5;entryDx=0;entryDy=0;" edge="1" parent="77e6c97f196da883-1" source="fQ6X1i2hyCeFsSE2rYZc-101" target="fQ6X1i2hyCeFsSE2rYZc-94">
          <mxGeometry relative="1" as="geometry" />
        </mxCell>
        <mxCell id="fQ6X1i2hyCeFsSE2rYZc-105" style="edgeStyle=orthogonalEdgeStyle;rounded=0;orthogonalLoop=1;jettySize=auto;html=1;exitX=1;exitY=0.5;exitDx=0;exitDy=0;entryX=0;entryY=0.5;entryDx=0;entryDy=0;" edge="1" parent="77e6c97f196da883-1" source="fQ6X1i2hyCeFsSE2rYZc-35" target="fQ6X1i2hyCeFsSE2rYZc-104">
          <mxGeometry relative="1" as="geometry" />
        </mxCell>
        <mxCell id="fQ6X1i2hyCeFsSE2rYZc-107" style="edgeStyle=orthogonalEdgeStyle;rounded=0;orthogonalLoop=1;jettySize=auto;html=1;exitX=0.5;exitY=1;exitDx=0;exitDy=0;entryX=0.5;entryY=0;entryDx=0;entryDy=0;" edge="1" parent="77e6c97f196da883-1" source="fQ6X1i2hyCeFsSE2rYZc-104" target="fQ6X1i2hyCeFsSE2rYZc-106">
          <mxGeometry relative="1" as="geometry" />
        </mxCell>
        <mxCell id="fQ6X1i2hyCeFsSE2rYZc-110" style="edgeStyle=orthogonalEdgeStyle;rounded=0;orthogonalLoop=1;jettySize=auto;html=1;exitX=1;exitY=0.5;exitDx=0;exitDy=0;entryX=0;entryY=0.5;entryDx=0;entryDy=0;" edge="1" parent="77e6c97f196da883-1" source="fQ6X1i2hyCeFsSE2rYZc-106" target="fQ6X1i2hyCeFsSE2rYZc-109">
          <mxGeometry relative="1" as="geometry">
            <mxPoint x="800" y="570" as="targetPoint" />
          </mxGeometry>
        </mxCell>
        <mxCell id="fQ6X1i2hyCeFsSE2rYZc-112" style="edgeStyle=orthogonalEdgeStyle;rounded=0;orthogonalLoop=1;jettySize=auto;html=1;exitX=0.5;exitY=1;exitDx=0;exitDy=0;entryX=0.5;entryY=0;entryDx=0;entryDy=0;" edge="1" parent="77e6c97f196da883-1" source="fQ6X1i2hyCeFsSE2rYZc-109" target="fQ6X1i2hyCeFsSE2rYZc-111">
          <mxGeometry relative="1" as="geometry" />
        </mxCell>
        <mxCell id="fQ6X1i2hyCeFsSE2rYZc-114" style="edgeStyle=orthogonalEdgeStyle;rounded=0;orthogonalLoop=1;jettySize=auto;html=1;exitX=1;exitY=0.5;exitDx=0;exitDy=0;entryX=0;entryY=0.5;entryDx=0;entryDy=0;" edge="1" parent="77e6c97f196da883-1" source="fQ6X1i2hyCeFsSE2rYZc-111" target="fQ6X1i2hyCeFsSE2rYZc-39">
          <mxGeometry relative="1" as="geometry" />
        </mxCell>
      </root>
    </mxGraphModel>
  </diagram>
</mxfile>
